<?xml version="1.0" standalone="no"?>
<!DOCTYPE svg PUBLIC "-//W3C//DTD SVG 20010904//EN"
 "http://www.w3.org/TR/2001/REC-SVG-20010904/DTD/svg10.dtd">
<svg version="1.0" xmlns="http://www.w3.org/2000/svg"
 width="500.000000pt" height="500.000000pt" viewBox="0 0 500.000000 500.000000"
 preserveAspectRatio="xMidYMid meet">

<g transform="translate(0.000000,500.000000) scale(0.100000,-0.100000)"
fill="#000000" stroke="none">
<path d="M2367 4088 c-14 -18 -65 -94 -113 -168 l-88 -135 -17 -130 -16 -130
-2 120 -1 120 66 129 67 130 -23 18 c-50 40 -65 23 -149 -167 l-71 -160 13
-245 c7 -134 10 -274 6 -310 -4 -36 -15 -126 -23 -200 -9 -74 -23 -195 -31
-268 -12 -108 -21 -144 -44 -190 l-28 -56 263 -148 c146 -81 269 -148 274
-148 5 0 43 49 83 109 58 88 99 134 209 237 100 92 162 161 228 250 l90 122
15 194 c10 129 11 196 4 203 -6 6 -32 -2 -77 -25 l-67 -35 -16 -107 c-8 -59
-22 -114 -29 -123 -8 -9 -113 -66 -233 -126 -281 -141 -259 -144 -359 56 -70
139 -71 144 -60 182 11 38 15 40 229 146 120 59 228 107 241 107 13 0 66 -23
119 -52 l95 -51 65 32 c47 23 64 36 61 49 -4 21 -335 242 -363 242 -11 0 -49
-9 -85 -20 -99 -30 -95 -33 -92 65 l3 85 153 126 c189 154 209 189 145 253
-56 56 -38 67 -384 -233 -44 -38 -82 -71 -85 -73 -2 -2 -17 -61 -32 -131 l-28
-127 5 85 c13 196 10 188 87 275 159 182 175 215 113 241 -57 24 -91 18 -118
-18z"/>
<path d="M2764 3176 c-12 -31 0 -51 31 -51 27 0 30 3 30 30 0 25 -4 30 -28 33
-17 2 -29 -2 -33 -12z"/>
<path d="M4297 2070 c-38 -10 -71 -21 -74 -24 -11 -11 29 -136 43 -136 14 0
135 31 142 36 6 4 -32 144 -38 143 -3 0 -36 -9 -73 -19z"/>
<path d="M2402 2056 c-41 -7 -78 -19 -83 -27 -18 -29 -10 -58 21 -74 l30 -16
0 -248 0 -248 -30 -6 c-28 -6 -30 -9 -30 -52 l0 -46 143 3 142 3 3 31 c3 27
-2 35 -32 54 l-36 21 -2 307 -3 307 -25 2 c-14 1 -58 -4 -98 -11z"/>
<path d="M3937 2056 c-37 -7 -69 -15 -72 -18 -3 -2 -8 -18 -11 -35 -5 -28 -2
-33 24 -47 40 -21 44 -47 40 -306 l-3 -204 -32 -10 c-31 -8 -33 -12 -33 -53
l0 -44 143 3 142 3 3 32 c3 26 -2 35 -25 49 -15 10 -30 20 -33 22 -3 2 -7 142
-10 310 l-5 307 -30 2 c-16 0 -60 -4 -98 -11z"/>
<path d="M628 1983 l-67 -4 -7 -36 c-7 -38 -6 -39 51 -77 19 -13 20 -25 20
-212 l0 -198 -32 -10 c-31 -8 -33 -12 -33 -51 0 -54 4 -55 175 -55 208 0 305
29 382 112 56 61 77 130 76 244 -1 148 -49 227 -164 270 -45 17 -255 26 -401
17z m303 -129 c53 -23 81 -80 87 -174 5 -93 -12 -187 -36 -194 -41 -12 -115
-18 -147 -12 l-35 7 0 194 c0 145 3 195 13 199 18 8 77 -2 118 -20z"/>
<path d="M2719 1983 l-67 -4 -7 -36 c-7 -38 -6 -40 48 -76 16 -11 18 -31 18
-212 l0 -200 -30 -8 c-29 -7 -31 -11 -31 -51 0 -55 3 -56 172 -56 136 0 244
17 306 49 117 60 178 206 152 366 -28 176 -126 237 -375 233 -66 -1 -150 -3
-186 -5z m309 -130 c47 -22 74 -81 80 -173 5 -93 -12 -187 -36 -194 -41 -12
-115 -18 -147 -12 l-34 7 -3 194 c-3 166 -1 195 12 199 24 7 92 -5 128 -21z"/>
<path d="M1426 1836 c-57 -21 -87 -46 -121 -101 -28 -46 -30 -55 -30 -150 0
-95 2 -105 30 -151 23 -37 44 -56 85 -77 50 -26 62 -28 131 -24 47 3 95 13
128 28 l53 22 -7 46 c-4 25 -8 47 -9 49 -2 1 -34 -5 -72 -14 -55 -12 -77 -13
-107 -4 -37 11 -76 54 -63 68 4 4 69 18 144 32 l137 26 -3 54 c-3 71 -37 137
-88 173 -49 34 -148 45 -208 23z m132 -123 c26 -36 15 -50 -53 -67 -80 -20
-75 -21 -75 8 0 38 17 74 37 79 30 9 77 -2 91 -20z"/>
<path d="M1914 1840 c-28 -4 -67 -13 -88 -20 l-36 -12 6 -51 c13 -94 17 -102
55 -105 33 -3 37 0 54 39 l19 41 58 -4 c68 -5 78 -12 85 -65 l5 -40 -64 -6
c-126 -12 -217 -64 -235 -135 -9 -36 17 -101 50 -126 41 -30 155 -28 215 3
l42 22 10 -26 c10 -27 5 -27 128 -4 47 9 52 13 52 37 0 17 -10 34 -27 48 -28
22 -28 22 -33 177 l-5 156 -29 30 c-47 49 -126 61 -262 41z m151 -345 c0 -38
-2 -40 -44 -52 -59 -17 -95 -1 -99 44 -3 27 1 33 20 37 13 3 32 7 43 10 11 2
34 3 50 3 28 -2 30 -5 30 -42z"/>
<path d="M3530 1841 c-121 -40 -177 -135 -168 -285 6 -90 38 -153 100 -194 38
-24 50 -27 132 -27 73 1 101 5 144 25 l54 23 -7 46 c-4 25 -8 47 -9 49 -2 1
-35 -5 -74 -14 -40 -9 -84 -13 -98 -10 -31 8 -77 52 -72 68 3 7 67 24 144 38
l139 26 -3 49 c-4 92 -41 158 -103 191 -35 18 -143 27 -179 15z m117 -128 c27
-36 16 -50 -52 -67 -35 -9 -67 -16 -70 -16 -3 0 -5 16 -5 35 0 51 31 79 79 71
20 -3 42 -13 48 -23z"/>
<path d="M4315 1839 c-114 -14 -130 -21 -133 -60 -2 -29 2 -37 28 -51 l30 -17
0 -131 0 -131 -30 -10 c-27 -10 -30 -15 -30 -55 l0 -44 140 0 c131 0 140 1
140 19 0 11 3 26 6 34 3 9 -7 22 -30 35 l-35 21 -3 190 c-2 110 -7 194 -13
199 -5 4 -37 5 -70 1z"/>
<path d="M3271 1151 c-16 -10 -6 -31 15 -31 8 0 14 9 14 20 0 22 -7 25 -29 11z"/>
<path d="M2235 1065 l0 -85 29 0 c22 0 27 4 22 16 -3 9 -6 47 -6 85 0 65 -1
69 -22 69 -22 0 -23 -4 -23 -85z"/>
<path d="M1281 1131 c-10 -7 -11 -13 -1 -31 12 -22 10 -69 -5 -102 -6 -16 -1
-18 44 -18 58 0 98 28 85 58 -4 9 -9 31 -11 47 -3 17 -12 36 -21 43 -18 14
-70 16 -91 3z m74 -41 c0 -7 -6 -15 -12 -17 -8 -3 -13 4 -13 17 0 13 5 20 13
18 6 -3 12 -11 12 -18z m3 -63 c2 -10 -3 -17 -11 -17 -16 0 -30 24 -19 34 10
10 27 1 30 -17z"/>
<path d="M1817 1133 c-14 -4 -16 -8 -6 -19 8 -9 10 -35 6 -74 l-5 -60 39 0
c59 0 97 23 104 64 14 72 -48 112 -138 89z m79 -31 c32 -22 20 -92 -16 -92
-17 0 -20 6 -20 50 0 49 9 60 36 42z"/>
<path d="M2538 1133 c-19 -5 -25 -23 -8 -23 6 0 10 -22 10 -49 0 -28 -4 -53
-10 -56 -25 -16 -5 -25 55 -25 63 0 65 1 65 25 0 14 -4 25 -10 25 -5 0 -10 -4
-10 -10 0 -5 -11 -10 -25 -10 -16 0 -25 6 -25 15 0 9 9 15 25 15 16 0 25 6 25
15 0 9 -9 15 -25 15 -18 0 -25 5 -25 20 0 13 7 20 20 20 11 0 20 -4 20 -10 0
-5 7 -10 16 -10 10 0 14 7 12 22 -3 20 -9 23 -48 24 -25 0 -53 -1 -62 -3z"/>
<path d="M3685 1088 c8 -60 9 -63 24 -53 6 3 11 28 11 56 0 43 -3 49 -21 49
-19 0 -20 -4 -14 -52z"/>
<path d="M1671 1111 c-16 -14 -21 -26 -16 -38 4 -10 9 -31 11 -46 5 -41 11
-47 45 -47 19 0 29 5 29 15 0 8 -9 15 -20 15 -16 0 -20 7 -20 30 0 23 4 30 20
30 11 0 20 7 20 15 0 8 -9 15 -19 15 -11 0 -21 7 -23 16 -3 14 -6 13 -27 -5z"/>
<path d="M3161 1107 c-14 -16 -19 -27 -12 -32 6 -3 11 -19 11 -35 0 -46 10
-60 40 -60 35 0 50 19 21 27 -29 7 -30 58 -1 66 24 6 27 27 4 27 -9 0 -22 7
-28 16 -10 13 -14 12 -35 -9z"/>
<path d="M1436 1078 c-41 -58 10 -118 78 -92 22 9 10 24 -20 24 -34 0 -30 16
6 24 20 4 30 11 30 24 0 44 -67 59 -94 20z m54 -18 c0 -5 -7 -10 -15 -10 -8 0
-15 5 -15 10 0 6 7 10 15 10 8 0 15 -4 15 -10z"/>
<path d="M1562 1088 c-20 -20 -14 -48 13 -60 14 -6 25 -15 25 -20 0 -11 -17
-10 -25 2 -10 17 -25 11 -25 -10 0 -15 7 -20 29 -20 44 0 61 10 61 35 0 16 -9
26 -31 35 -20 9 -27 16 -20 23 7 7 15 6 26 -3 18 -15 30 -7 22 15 -8 18 -58
20 -75 3z"/>
<path d="M1992 1088 c-17 -17 -15 -83 2 -97 18 -15 78 -10 84 7 2 8 -7 12 -27
12 -42 0 -39 14 4 26 33 9 34 10 22 34 -14 28 -64 39 -85 18z m50 -30 c-9 -9
-15 -9 -24 0 -9 9 -7 12 12 12 19 0 21 -3 12 -12z"/>
<path d="M2107 1094 c-4 -4 -7 -14 -7 -22 0 -10 7 -12 25 -8 41 10 53 -6 14
-19 -26 -9 -34 -17 -34 -36 0 -22 5 -24 45 -26 58 -3 76 3 62 20 -6 7 -12 30
-14 52 -3 39 -4 40 -43 43 -23 2 -44 0 -48 -4z m63 -73 c0 -14 -18 -23 -30
-16 -6 4 -8 11 -5 16 8 12 35 12 35 0z"/>
<path d="M2310 1080 c-9 -17 -6 -25 22 -50 21 -19 27 -30 17 -30 -8 0 -20 5
-26 11 -7 7 -12 4 -16 -11 -5 -19 -2 -21 35 -18 54 4 73 31 40 58 -12 10 -28
20 -35 23 -6 2 -9 8 -4 12 4 5 13 3 19 -3 18 -18 28 -15 28 8 0 29 -65 29 -80
0z"/>
<path d="M2665 1083 c4 -10 14 -37 22 -60 20 -57 43 -56 71 2 27 56 28 75 4
75 -14 0 -19 -8 -20 -31 0 -17 -4 -34 -7 -37 -11 -11 -25 22 -20 46 5 19 1 22
-26 22 -26 0 -30 -3 -24 -17z"/>
<path d="M2806 1078 c-34 -49 -8 -102 47 -96 38 4 49 28 13 28 -36 0 -33 16 4
24 20 4 30 11 30 24 0 44 -67 59 -94 20z m54 -19 c0 -5 -7 -9 -15 -9 -15 0
-20 12 -9 23 8 8 24 -1 24 -14z"/>
<path d="M2915 1090 c-3 -5 -1 -11 5 -15 13 -8 13 -62 0 -70 -21 -13 -9 -25
25 -25 34 0 46 12 25 25 -19 11 -11 57 10 62 11 3 20 11 20 18 0 14 -76 19
-85 5z"/>
<path d="M3015 1083 c29 -73 36 -104 26 -117 -8 -10 -8 -16 3 -25 13 -11 21
-1 50 58 42 82 44 101 15 101 -15 0 -19 -4 -15 -16 3 -8 1 -25 -6 -37 l-11
-21 -8 22 c-5 12 -6 29 -3 37 5 11 -2 15 -26 15 -27 0 -31 -3 -25 -17z"/>
<path d="M3255 1091 c-3 -5 -1 -12 5 -16 13 -8 13 -62 0 -70 -21 -13 -9 -25
25 -25 34 0 46 12 25 25 -5 3 -10 26 -10 51 0 37 -3 44 -19 44 -11 0 -22 -4
-26 -9z"/>
<path d="M3339 1097 c0 -1 -1 -28 -2 -60 l-2 -57 33 0 c31 0 42 12 22 25 -5 3
-10 20 -10 36 0 24 4 30 18 27 13 -3 17 -13 15 -46 -2 -40 -1 -42 28 -42 30 0
36 9 18 27 -16 16 -7 57 15 61 17 4 18 -1 14 -42 -5 -45 -5 -46 22 -46 27 0
28 1 23 43 -10 72 -12 74 -108 76 -47 0 -85 0 -86 -2z"/>
<path d="M3566 1084 c-19 -19 -21 -64 -3 -88 9 -12 23 -17 47 -14 40 4 54 28
16 28 -13 0 -28 5 -31 10 -3 6 3 10 14 10 50 0 65 24 33 53 -23 21 -56 22 -76
1z m49 -24 c-3 -5 -10 -10 -16 -10 -5 0 -9 5 -9 10 0 6 7 10 16 10 8 0 12 -4
9 -10z"/>
<path d="M2426 1002 c-3 -5 -2 -22 3 -38 l8 -29 12 23 c13 25 9 52 -8 52 -5 0
-12 -4 -15 -8z"/>
<path d="M3687 1004 c-9 -10 2 -24 19 -24 8 0 14 7 14 15 0 15 -21 21 -33 9z"/>
</g>
</svg>
